<?xml version="1.0" standalone="no"?>
<!DOCTYPE svg PUBLIC "-//W3C//DTD SVG 20010904//EN"
 "http://www.w3.org/TR/2001/REC-SVG-20010904/DTD/svg10.dtd">
<svg version="1.0" xmlns="http://www.w3.org/2000/svg"
 width="1280.000000pt" height="872.000000pt" viewBox="0 0 1280.000000 872.000000"
 preserveAspectRatio="xMidYMid meet">

<g transform="translate(0.000000,872.000000) scale(0.100000,-0.100000)"
fill="#000000" stroke="none">
<path d="M3753 8682 c-6 -4 -17 -20 -22 -35 -8 -20 -11 -609 -11 -1922 0
-1708 -2 -1895 -16 -1909 -19 -20 134 -19 -1686 -16 -1515 2 -1526 2 -1546
-18 -19 -19 -20 -38 -27 -444 -10 -616 -10 -778 -7 -2000 2 -1093 2 -1108 22
-1128 20 -20 33 -20 2943 -20 2512 0 2926 2 2943 14 18 14 19 33 19 705 0 537
3 693 12 702 10 10 251 13 1119 15 654 1 1109 5 1115 11 17 17 24 98 19 223
l-5 125 -227 5 c-143 3 -231 9 -238 16 -7 7 -13 130 -17 355 -6 337 -5 345 15
369 l20 25 744 -4 c535 -2 747 -6 757 -15 12 -9 13 -39 6 -171 -5 -88 -7 -300
-5 -471 2 -306 2 -312 -18 -323 -12 -6 -76 -11 -156 -11 -107 0 -138 -3 -150
-15 -13 -13 -15 -173 -13 -1355 2 -1271 3 -1340 20 -1357 17 -17 62 -18 802
-18 740 0 785 1 802 18 17 17 18 69 21 910 1 596 6 895 13 902 7 7 292 12 852
15 901 5 878 4 897 55 11 29 13 2652 2 3327 l-7 467 -23 23 -23 23 -758 5
c-418 3 -763 9 -768 13 -4 5 -10 657 -13 1449 -5 1411 -5 1440 -24 1454 -17
12 -537 14 -3695 14 -2022 0 -3681 -4 -3688 -8z m7118 -312 c19 -11 19 -35 19
-1295 0 -1260 0 -1284 -19 -1295 -13 -6 -214 -10 -583 -10 -471 0 -567 -2
-584 -14 -18 -14 -19 -36 -22 -802 -2 -556 -6 -791 -13 -801 -10 -11 -297 -13
-1643 -13 -897 0 -1636 4 -1643 8 -8 5 -13 92 -15 314 -3 279 -5 309 -21 325
-17 17 -82 18 -1175 23 l-1157 5 -3 1770 c-2 1655 -1 1771 15 1783 22 16 6813
18 6844 2z m422 -2689 c59 -58 38 -155 -40 -187 -46 -20 -78 -11 -120 31 -25
25 -33 41 -33 70 0 109 118 161 193 86z m1120 -245 c20 -20 15 -3265 -5 -3277
-7 -5 -322 -9 -700 -9 -611 0 -688 2 -702 16 -14 13 -16 54 -16 288 0 250 -2
274 -18 289 -16 15 -71 17 -489 19 -259 2 -474 5 -476 8 -3 3 -7 603 -9 1333
-3 1172 -1 1329 12 1337 9 6 470 10 1202 10 1012 0 1189 -2 1201 -14z m-9059
-690 c128 -54 81 -241 -56 -223 -119 16 -143 175 -35 222 41 18 50 18 91 1z
m2709 -305 c16 -12 17 -129 17 -1496 0 -1367 -1 -1484 -17 -1496 -24 -21
-5282 -21 -5307 0 -15 12 -16 127 -15 1496 0 815 4 1486 7 1492 4 6 16 13 27
16 11 3 1202 4 2646 3 2209 -1 2629 -3 2642 -15z m703 -716 c15 -23 16 -47 11
-198 -17 -460 -20 -512 -31 -519 -20 -14 -352 -9 -364 5 -6 7 -13 148 -17 357
-7 318 -6 347 9 363 15 15 41 17 196 17 l180 0 16 -25z m3432 -1077 c26 -26 0
-88 -36 -88 -23 0 -52 30 -52 55 0 28 18 45 50 45 14 0 31 -5 38 -12z m146
-124 c19 -18 19 -20 6 -45 -10 -18 -23 -19 -190 -19 -98 0 -185 3 -194 6 -19
7 -22 60 -3 67 6 3 92 6 189 6 148 1 179 -2 192 -15z m467 -151 c5 -5 8 -351
7 -849 l-3 -839 -480 -5 c-264 -3 -554 -3 -645 0 l-165 5 0 845 0 845 30 6
c50 9 1246 2 1256 -8z m-575 -1907 c29 -29 34 -41 34 -81 0 -40 -5 -52 -34
-81 -44 -44 -99 -47 -145 -8 -89 74 -43 202 73 204 30 0 45 -7 72 -34z"/>
<path d="M99 1048 c-15 -5 -30 -19 -33 -31 -11 -42 -6 -193 7 -211 12 -17 169
-17 3296 -17 2294 0 3287 3 3295 11 13 13 24 120 18 188 -4 46 -8 55 -30 63
-33 13 -6516 9 -6553 -3z"/>
</g>
</svg>
